Format                                   : Matroska
Format version                           : Version 2
File size                                : 2.28 GiB
Duration                                 : 2h 11mn
Overall bit rate                         : 2 483 Kbps
Movie name                               : Snow.White.and.the.Huntsman.2012.720p Blu-ray[Dual Audio].6Ch.[ DTS.Hindi-English].by K@rtik [ExD Exclusive]

Codec ID                                 : V_MPEG4/ISO/AVC
Duration                                 : 2h 11mn
Bit rate                                 : 1 231 Kbps
Nominal bit rate                         : 823 Kbps
Width                                    : 1 280 pixels
Height                                   : 544 pixels
Display aspect ratio                     : 2.35:1
Frame rate                               : 23.976 fps
Color space                              : YUV
Chroma subsampling                       : 4:2:0
Bit depth                                : 8 bits
Scan type                                : Progressive
Bits/(Pixel*Frame)                       : 0.074
Stream size                              : 1.13 GiB (50%)
Title                                    : K@rtik

Codec ID                                 : A_AC3
Duration                                 : 2h 11mn
Bit rate mode                            : Constant
Bit rate                                 : 448 Kbps
Channel(s)                               : 6 channels
Channel positions                        : Front: L C R, Side: L R, LFE
Sampling rate                            : 48.0 KHz
Bit depth                                : 16 bits
Compression mode                         : Lossy
Stream size                              : 422 MiB (18%)
Title                                    : K@rtik
Language                                 : English

Codec ID                                 : A_DTS
Duration                                 : 2h 11mn
Bit rate mode                            : Constant
Bit rate                                 : 755 Kbps
Channel(s)                               : 6 channels
Channel positions                        : Front: L C R, Side: L R, LFE
Sampling rate                            : 48.0 KHz
Bit depth                                : 24 bits
Compression mode                         : Lossy
Stream size                              : 710 MiB (30%)
Title                                    : K@rtik
Language                                 : Hindi
 
http://imageshack.us/a/img155/1023/111wc.png 
http://imageshack.us/a/img407/9982/1111w.png 
http://imageshack.us/a/img692/7296/92954116.png 
http://imageshack.us/a/img208/7017/47042010.png 
http://imageshack.us/a/img96/97/34552364.png 
http://imageshack.us/a/img42/7998/87082621.png 
http://imageshack.us/a/img35/1620/15579445.png 
http://imageshack.us/a/img196/2769/81629674.png 
http://imageshack.us/a/img853/8245/47668843.png 
http://imageshack.us/a/img267/9079/42973408.png 
http://imageshack.us/a/img33/8435/13618120.png 
http://imageshack.us/a/img805/7603/49830277.png 
http://imageshack.us/a/img19/3918/25875838.png
